<svg width="500" height="504" viewBox="0 0 500 504" fill="none" xmlns="http://www.w3.org/2000/svg">
<rect y="4" width="500" height="500" rx="15" fill="#FFBB18"/>
<path d="M206.55 108.65V105.5L272.25 104.6C271.65 132.8 271.95 161.3 273.15 190.1C274.35 218.9 274.65 247.85 274.05 276.95C273.45 289.25 273 302.6 272.7 317C272.4 331.1 270.75 344.75 267.75 357.95C265.05 371.15 260.1 383.15 252.9 393.95C246 404.75 235.65 412.7 221.85 417.8C209.25 424.1 195.45 427.55 180.45 428.15C165.45 429.05 151.2 428 137.7 425C125.4 421.4 115.5 414.8 108 405.2C100.5 395.6 94.8 384.65 90.9 372.35C87 359.75 84.45 346.7 83.25 333.2C82.35 319.4 82.2 306.8 82.8 295.4C86.7 294.5 91.5 293.9 97.2 293.6C103.2 293.3 109.35 293.15 115.65 293.15C121.95 293.15 128.25 293.45 134.55 294.05C141.15 294.65 147.15 295.4 152.55 296.3V296.75V299C152.85 303.5 153.3 308.75 153.9 314.75C154.8 320.45 156.3 326 158.4 331.4C160.5 336.5 163.2 340.85 166.5 344.45C169.8 348.05 174.15 350 179.55 350.3C184.05 351.2 187.95 350.9 191.25 349.4C194.55 347.9 197.25 345.65 199.35 342.65C201.75 339.35 203.55 335.75 204.75 331.85C205.95 327.65 206.7 323.3 207 318.8C206.4 285.2 205.8 250.7 205.2 215.3C204.9 179.9 205.35 144.35 206.55 108.65ZM346.901 424.1H346.001L312.251 424.55C311.351 424.55 310.901 422.6 310.901 418.7C310.901 414.8 311.051 410.15 311.351 404.75C311.651 399.05 312.101 393.2 312.701 387.2C313.301 381.2 313.601 376.1 313.601 371.9V371.45C317.201 369.95 321.251 369.05 325.751 368.75C330.251 368.45 334.901 368.45 339.701 368.75C344.801 369.05 349.751 369.5 354.551 370.1C359.351 370.4 364.001 370.55 368.501 370.55C368.201 378.95 367.901 387.95 367.601 397.55C367.301 406.85 367.151 415.85 367.151 424.55H364.001C360.401 424.55 357.401 424.55 355.001 424.55C352.901 424.25 350.201 424.1 346.901 424.1ZM308.651 169.85C308.951 149.75 309.701 129.5 310.901 109.1H312.251C320.051 108.5 329.051 107.6 339.251 106.4C349.751 105.2 359.201 105.8 367.601 108.2C367.001 146.6 366.401 186.35 365.801 227.45C365.501 268.25 366.251 307.85 368.051 346.25C360.251 347.15 350.801 347.75 339.701 348.05C328.601 348.05 318.701 348.2 310.001 348.5H309.551C309.851 328.7 309.851 308.9 309.551 289.1C309.551 269.3 309.401 249.5 309.101 229.7C308.801 209.9 308.651 189.95 308.651 169.85Z" fill="black"/>
</svg>
